<svg id="svg" version="1.1" xmlns="http://www.w3.org/2000/svg" xmlns:xlink="http://www.w3.org/1999/xlink" width="400" height="400" viewBox="0, 0, 400,400"><g id="svgg"><path id="path0" d="M84.321 50.100 L 84.200 52.200 81.435 52.320 L 78.669 52.440 78.935 76.486 C 79.081 89.711,79.200 106.442,79.200 113.666 L 79.200 126.800 81.540 126.800 L 83.879 126.800 84.138 130.700 C 84.280 132.845,84.397 150.997,84.398 171.038 C 84.399 191.079,84.517 209.386,84.660 211.720 L 84.919 215.965 87.360 216.082 L 89.800 216.200 90.000 218.600 L 90.200 221.000 168.800 221.000 L 247.400 221.000 247.650 223.800 C 247.971 227.392,247.970 240.499,247.648 244.400 L 247.400 247.400 244.900 247.519 L 242.400 247.638 242.400 258.159 L 242.400 268.680 238.739 268.940 C 236.725 269.083,233.215 269.200,230.939 269.200 L 226.800 269.200 226.800 271.800 L 226.800 274.400 219.020 274.400 L 211.240 274.400 211.120 276.700 L 211.000 279.000 203.200 279.000 L 195.400 279.000 195.280 276.700 L 195.160 274.400 188.080 274.398 C 184.186 274.396,179.523 274.280,177.718 274.140 L 174.435 273.884 174.318 271.442 L 174.200 269.000 168.718 268.889 L 163.236 268.778 163.118 266.089 L 163.000 263.400 160.547 263.282 L 158.094 263.164 157.807 258.182 L 157.519 253.200 125.980 253.200 L 94.440 253.200 94.320 255.500 L 94.200 257.800 92.100 257.921 L 90.000 258.042 90.000 259.559 C 90.000 260.394,90.116 262.716,90.259 264.719 L 90.517 268.361 92.359 268.480 L 94.200 268.600 94.443 289.200 C 94.576 300.530,94.711 311.262,94.743 313.049 L 94.800 316.297 100.000 316.585 L 105.200 316.873 105.200 318.824 L 105.200 320.776 110.300 320.888 L 115.400 321.000 115.518 323.692 L 115.636 326.384 123.918 326.492 L 132.200 326.600 132.318 329.042 L 132.435 331.484 135.718 331.740 C 137.523 331.880,140.457 331.996,142.239 331.998 C 144.020 331.999,147.125 332.117,149.139 332.260 L 152.800 332.520 152.800 334.848 L 152.800 337.176 157.900 337.288 L 163.000 337.400 163.200 339.600 L 163.400 341.800 171.200 342.000 L 179.000 342.200 179.118 344.641 L 179.235 347.082 183.118 347.339 C 185.253 347.480,188.440 347.598,190.200 347.600 C 191.960 347.603,194.885 347.720,196.700 347.862 L 200.000 348.119 200.000 350.459 L 200.000 352.800 202.581 352.800 L 205.162 352.800 205.281 350.300 L 205.400 347.800 211.600 347.553 C 215.010 347.417,218.565 347.282,219.500 347.253 L 221.200 347.200 221.200 344.860 L 221.200 342.521 225.100 342.262 C 227.245 342.120,231.925 342.003,235.500 342.002 L 242.000 342.000 242.000 339.600 L 242.000 337.200 247.600 337.200 L 253.200 337.200 253.200 334.600 L 253.200 332.000 256.738 332.000 C 258.684 332.000,262.194 331.883,264.538 331.739 L 268.800 331.478 268.800 329.200 L 268.800 326.921 272.700 326.662 C 274.845 326.520,279.525 326.403,283.100 326.402 L 289.600 326.400 289.600 323.600 L 289.600 320.800 294.800 320.800 L 300.000 320.800 300.000 318.641 L 300.000 316.482 305.397 316.193 L 310.794 315.904 310.897 289.452 L 311.000 263.000 313.439 262.882 L 315.879 262.765 316.147 222.282 C 316.295 200.017,316.526 180.135,316.662 178.100 L 316.910 174.400 318.855 174.400 L 320.800 174.400 320.800 168.800 L 320.800 163.200 318.600 163.200 L 316.400 163.200 316.400 160.665 L 316.400 158.130 234.954 157.886 C 190.159 157.751,153.396 157.529,153.258 157.392 C 152.883 157.016,152.666 127.091,152.995 120.952 L 153.282 115.600 233.380 115.600 C 277.433 115.600,315.116 115.484,317.120 115.341 L 320.762 115.083 320.881 113.041 L 321.000 111.000 323.700 110.882 L 326.400 110.763 326.400 81.582 L 326.400 52.400 323.600 52.400 L 320.800 52.400 320.800 50.200 L 320.800 48.000 202.621 48.000 L 84.442 48.000 84.321 50.100 " stroke="none" fill="#f4ebe7" fill-rule="evenodd"></path><path id="path1" d="M200.097 23.700 L 200.200 47.400 263.400 47.600 L 326.600 47.800 326.720 50.100 L 326.840 52.400 329.424 52.400 L 332.009 52.400 331.905 68.500 L 331.800 84.600 329.305 84.719 L 326.809 84.838 326.705 100.119 L 326.600 115.400 321.500 115.750 L 316.400 116.099 316.400 118.648 L 316.400 121.197 258.300 121.299 L 200.200 121.400 200.095 137.100 L 199.991 152.800 257.915 152.800 C 302.435 152.800,315.951 152.911,316.320 153.280 C 316.584 153.544,316.800 154.624,316.800 155.680 L 316.800 157.600 319.000 157.600 L 321.200 157.600 321.200 187.938 C 321.200 204.624,321.083 220.194,320.939 222.538 L 320.678 226.800 318.739 226.800 L 316.800 226.800 316.743 242.100 C 316.711 250.515,316.576 268.200,316.443 281.400 L 316.200 305.400 313.711 305.519 L 311.222 305.638 311.111 311.119 L 311.000 316.600 308.300 316.718 L 305.600 316.837 305.600 319.018 L 305.600 321.200 300.400 321.200 L 295.200 321.200 295.200 323.740 L 295.200 326.279 291.300 326.538 C 289.155 326.680,285.564 326.797,283.319 326.798 L 279.238 326.800 279.119 329.300 L 279.000 331.800 276.200 332.050 C 274.660 332.188,271.204 332.323,268.519 332.350 L 263.638 332.400 263.519 334.900 L 263.400 337.400 255.500 337.508 L 247.600 337.617 247.600 339.748 L 247.600 341.879 243.700 342.138 C 241.555 342.280,238.135 342.397,236.100 342.398 L 232.400 342.400 232.400 344.776 C 232.400 347.774,233.009 347.549,224.042 347.861 L 216.400 348.126 216.400 350.655 L 216.400 353.183 208.300 353.292 L 200.200 353.400 200.097 376.700 L 199.994 400.000 216.197 400.000 L 232.400 400.000 232.400 397.800 L 232.400 395.600 240.200 395.600 L 248.000 395.600 248.000 393.000 L 248.000 390.400 249.700 390.398 C 250.635 390.396,252.885 390.280,254.700 390.138 L 258.000 389.881 258.000 387.349 L 258.000 384.816 266.278 384.708 L 274.556 384.600 274.449 382.307 L 274.343 380.013 284.871 379.907 L 295.400 379.800 295.519 377.300 L 295.638 374.800 297.719 374.762 C 298.864 374.742,301.060 374.697,302.600 374.662 L 305.400 374.600 305.518 371.908 L 305.636 369.217 313.518 369.108 L 321.400 369.000 321.518 366.307 L 321.636 363.613 331.918 363.507 L 342.200 363.400 342.320 361.100 L 342.440 358.800 345.220 358.800 L 348.000 358.800 348.000 356.212 L 348.000 353.623 353.300 353.512 L 358.600 353.400 358.704 337.100 L 358.809 320.800 360.971 320.800 C 362.160 320.800,363.195 320.986,363.271 321.213 C 363.347 321.441,363.409 320.586,363.409 319.313 C 363.409 318.041,363.452 299.225,363.505 277.500 L 363.600 238.000 366.176 238.000 C 367.593 238.000,368.867 237.816,369.006 237.590 C 369.145 237.365,369.111 237.206,368.930 237.237 C 368.748 237.269,367.475 237.273,366.100 237.247 L 363.600 237.200 363.600 234.818 L 363.600 232.437 366.229 232.318 L 368.857 232.200 368.969 229.000 C 369.031 227.240,369.108 208.295,369.140 186.900 L 369.200 148.000 371.600 148.000 L 374.000 148.000 374.000 145.200 C 374.000 143.660,374.151 142.400,374.336 142.400 C 374.522 142.400,374.657 132.847,374.636 121.171 L 374.600 99.941 377.008 100.071 L 379.417 100.200 379.263 97.500 C 379.160 95.692,379.257 94.800,379.555 94.800 C 379.879 94.800,380.000 81.938,380.000 47.400 L 380.000 0.000 289.997 0.000 L 199.994 0.000 200.097 23.700 M200.000 249.139 C 200.000 261.425,200.117 273.125,200.260 275.139 L 200.520 278.800 202.840 278.800 L 205.160 278.800 205.280 276.500 L 205.400 274.200 211.100 274.089 L 216.800 273.978 216.800 271.647 L 216.800 269.316 219.700 269.055 C 221.295 268.912,225.877 268.678,229.883 268.535 L 237.165 268.276 237.283 265.838 L 237.400 263.400 239.700 263.280 L 242.000 263.160 242.002 251.480 C 242.003 245.056,242.120 238.045,242.262 235.900 L 242.521 232.000 244.860 232.000 L 247.200 232.000 247.200 229.400 L 247.200 226.800 223.600 226.800 L 200.000 226.800 200.000 249.139 M37.900 237.889 C 38.615 237.978,39.785 237.978,40.500 237.889 C 41.215 237.801,40.630 237.728,39.200 237.728 C 37.770 237.728,37.185 237.801,37.900 237.889 M41.788 281.800 C 41.788 295.000,41.838 300.342,41.900 293.671 C 41.961 287.001,41.961 276.201,41.900 269.671 C 41.838 263.142,41.788 268.600,41.788 281.800 M342.000 361.000 L 342.000 363.200 340.000 363.200 L 338.000 363.200 338.000 361.000 L 338.000 358.800 340.000 358.800 L 342.000 358.800 342.000 361.000 M110.524 377.000 C 110.526 378.320,110.601 378.812,110.690 378.093 C 110.779 377.374,110.777 376.294,110.686 375.693 C 110.595 375.092,110.522 375.680,110.524 377.000 M126.124 382.200 C 126.126 383.520,126.201 384.012,126.290 383.293 C 126.379 382.574,126.377 381.494,126.286 380.893 C 126.195 380.292,126.122 380.880,126.124 382.200 " stroke="none" fill="#fc641b" fill-rule="evenodd"></path><path id="path2" d="M26.000 49.567 C 26.000 76.829,26.109 99.419,26.243 99.767 C 26.423 100.236,27.045 100.400,28.643 100.400 L 30.800 100.400 30.843 142.300 C 30.866 165.345,30.851 185.505,30.808 187.100 L 30.729 190.000 33.565 190.000 L 36.400 190.000 36.400 213.800 L 36.400 237.600 38.935 237.600 L 41.470 237.600 41.734 252.900 C 41.880 261.315,41.999 280.215,41.999 294.900 L 42.000 321.600 44.600 321.600 L 47.200 321.600 47.200 337.600 L 47.200 353.600 52.400 353.600 L 57.600 353.600 57.600 356.200 L 57.600 358.800 60.180 358.800 L 62.760 358.800 62.880 361.100 L 63.000 363.400 70.900 363.508 L 78.800 363.617 78.800 366.148 L 78.800 368.679 82.700 368.938 C 84.845 369.080,89.525 369.197,93.100 369.198 L 99.600 369.200 99.600 371.755 L 99.600 374.310 105.226 374.601 L 110.853 374.893 110.752 377.346 L 110.652 379.800 118.526 379.908 L 126.400 380.017 126.400 382.408 L 126.400 384.800 136.800 384.800 L 147.200 384.800 147.200 387.600 L 147.200 390.400 152.400 390.400 L 157.600 390.400 157.600 393.000 L 157.600 395.600 165.800 395.600 L 174.000 395.600 174.000 397.800 L 174.000 400.000 186.994 400.000 L 199.987 400.000 200.094 376.611 L 200.200 353.222 195.000 353.111 L 189.800 353.000 189.681 350.500 L 189.562 348.000 185.442 348.000 C 183.177 348.000,179.675 347.883,177.661 347.740 L 174.000 347.480 174.000 344.940 L 174.000 342.400 169.661 342.400 C 167.275 342.400,163.684 342.284,161.680 342.141 L 158.038 341.883 157.919 339.841 L 157.800 337.800 150.000 337.600 L 142.200 337.400 142.081 334.900 L 141.962 332.400 138.681 332.398 C 136.876 332.397,133.375 332.280,130.900 332.137 L 126.400 331.878 126.400 329.339 L 126.400 326.800 121.860 326.800 C 119.364 326.800,115.951 326.684,114.278 326.543 L 111.235 326.286 111.118 323.843 L 111.000 321.400 103.049 321.116 C 98.676 320.959,95.045 320.779,94.981 320.714 C 94.917 320.650,94.715 318.438,94.532 315.799 L 94.200 311.000 92.141 310.881 L 90.081 310.761 89.817 305.081 C 89.672 301.956,89.609 288.960,89.677 276.200 L 89.800 253.000 92.100 252.880 L 94.400 252.760 94.400 250.180 L 94.400 247.600 125.982 247.600 L 157.563 247.600 157.682 250.300 L 157.800 253.000 160.461 253.117 L 163.121 253.235 163.409 258.217 L 163.696 263.200 166.248 263.200 L 168.800 263.200 168.800 265.800 L 168.800 268.400 172.338 268.400 C 174.284 268.400,177.794 268.517,180.138 268.661 L 184.400 268.922 184.400 271.461 L 184.400 274.000 188.940 274.000 C 191.436 274.000,194.856 274.116,196.540 274.259 L 199.600 274.517 199.600 276.435 C 199.600 277.490,199.809 278.482,200.064 278.640 C 200.411 278.854,200.462 277.984,200.264 275.202 C 200.119 273.153,200.000 261.425,200.000 249.139 L 200.000 226.800 148.060 226.800 C 119.494 226.800,94.762 226.685,93.101 226.545 L 90.082 226.290 89.797 221.545 L 89.512 216.800 86.999 216.800 C 83.730 216.800,84.000 218.762,84.000 194.967 L 84.000 174.400 81.666 174.400 L 79.331 174.400 79.066 150.334 C 78.920 137.098,78.799 119.683,78.798 111.634 C 78.796 103.585,78.680 95.523,78.540 93.718 L 78.284 90.436 76.042 90.318 L 73.800 90.200 73.498 86.000 C 73.331 83.690,73.241 75.140,73.298 67.000 L 73.400 52.200 76.100 52.082 L 78.800 51.963 78.800 49.782 L 78.800 47.600 139.500 47.600 L 200.200 47.600 200.094 23.800 L 199.988 0.000 112.994 0.000 L 26.000 0.000 26.000 49.567 M379.206 97.100 C 379.209 98.365,379.387 99.670,379.600 100.000 C 379.870 100.418,379.990 99.720,379.994 97.700 C 379.997 96.029,379.830 94.800,379.600 94.800 C 379.379 94.800,379.203 95.829,379.206 97.100 M375.500 100.289 C 376.215 100.378,377.385 100.378,378.100 100.289 C 378.815 100.201,378.230 100.128,376.800 100.128 C 375.370 100.128,374.785 100.201,375.500 100.289 M153.200 129.136 C 153.200 133.500,153.319 140.610,153.463 144.936 L 153.727 152.800 176.854 152.800 L 199.982 152.800 200.091 137.000 L 200.200 121.200 176.700 121.200 L 153.200 121.200 153.200 129.136 M374.531 134.200 C 374.533 135.740,374.605 136.321,374.692 135.491 C 374.779 134.661,374.777 133.401,374.689 132.691 C 374.600 131.981,374.529 132.660,374.531 134.200 M374.134 145.200 C 374.134 146.850,374.205 147.525,374.291 146.700 C 374.378 145.875,374.378 144.525,374.291 143.700 C 374.205 142.875,374.134 143.550,374.134 145.200 M368.928 229.200 C 368.928 230.630,369.001 231.215,369.089 230.500 C 369.178 229.785,369.178 228.615,369.089 227.900 C 369.001 227.185,368.928 227.770,368.928 229.200 M366.300 232.318 L 363.600 232.437 363.600 234.784 L 363.600 237.132 366.252 237.266 C 369.276 237.419,369.293 237.401,369.122 234.355 L 369.000 232.200 366.300 232.318 M363.267 318.700 L 363.200 320.800 361.000 320.800 C 359.790 320.800,358.800 320.980,358.800 321.200 C 358.800 321.420,359.787 321.600,360.992 321.600 C 363.473 321.600,363.802 321.148,363.495 318.162 C 363.355 316.801,363.326 316.870,363.267 318.700 M338.000 361.000 L 338.000 363.200 340.000 363.200 L 342.000 363.200 342.000 361.000 L 342.000 358.800 340.000 358.800 L 338.000 358.800 338.000 361.000 M305.731 371.800 C 305.733 373.340,305.805 373.921,305.892 373.091 C 305.979 372.261,305.977 371.001,305.889 370.291 C 305.800 369.581,305.729 370.260,305.731 371.800 M274.520 382.000 C 274.520 383.210,274.595 383.705,274.687 383.100 C 274.778 382.495,274.778 381.505,274.687 380.900 C 274.595 380.295,274.520 380.790,274.520 382.000 M254.707 390.290 C 255.426 390.379,256.506 390.377,257.107 390.286 C 257.708 390.195,257.120 390.122,255.800 390.124 C 254.480 390.126,253.988 390.201,254.707 390.290 " stroke="none" fill="#fc9304" fill-rule="evenodd"></path><path id="path3" d="M78.800 49.782 L 78.800 51.963 76.100 52.082 L 73.400 52.200 73.298 67.000 C 73.241 75.140,73.331 83.690,73.498 86.000 L 73.800 90.200 76.081 90.319 L 78.361 90.439 78.511 92.719 C 78.594 93.974,78.647 92.570,78.631 89.600 L 78.600 84.200 76.100 84.081 L 73.600 83.962 73.600 68.199 L 73.600 52.437 76.300 52.318 L 79.000 52.200 79.120 50.119 L 79.241 48.037 81.720 47.896 L 84.200 47.754 81.500 47.677 L 78.800 47.600 78.800 49.782 M321.137 49.784 L 321.274 52.000 323.794 52.000 C 325.723 52.000,326.371 52.148,326.557 52.633 C 326.872 53.452,326.864 66.060,326.534 91.100 L 326.269 111.200 323.956 111.200 L 321.642 111.200 321.521 113.300 L 321.400 115.400 318.400 115.648 C 316.750 115.784,289.345 115.919,257.500 115.948 L 199.600 116.000 199.600 118.397 L 199.600 120.794 176.300 120.900 C 163.485 120.959,189.765 121.050,234.700 121.103 L 316.400 121.200 316.400 118.650 L 316.400 116.099 321.500 115.750 L 326.600 115.400 326.705 100.119 L 326.809 84.838 329.305 84.719 L 331.800 84.600 331.905 68.500 L 332.009 52.400 329.424 52.400 L 326.840 52.400 326.720 50.100 L 326.600 47.800 323.800 47.684 L 321.000 47.568 321.137 49.784 M79.056 138.600 C 79.134 144.980,79.199 155.645,79.199 162.300 L 79.200 174.400 81.600 174.400 L 84.000 174.400 84.091 195.300 C 84.140 206.795,84.244 212.780,84.320 208.600 C 84.396 204.420,84.333 186.555,84.181 168.900 L 83.903 136.800 81.563 136.800 L 79.224 136.800 79.069 131.900 C 78.983 129.205,78.977 132.220,79.056 138.600 M153.287 147.634 L 153.200 153.068 192.266 153.334 C 213.753 153.480,250.373 153.600,273.645 153.600 L 315.958 153.600 316.079 155.700 L 316.200 157.800 318.483 157.919 L 320.766 158.039 320.903 160.919 L 321.041 163.800 321.121 160.700 L 321.200 157.600 319.000 157.600 L 316.800 157.600 316.800 155.680 C 316.800 154.624,316.584 153.544,316.320 153.280 C 315.950 152.910,297.283 152.800,234.732 152.800 L 153.623 152.800 153.499 147.500 L 153.375 142.200 153.287 147.634 M320.896 195.100 L 320.800 216.400 318.859 216.400 L 316.919 216.400 316.662 219.700 C 316.520 221.515,316.447 232.000,316.498 243.000 L 316.592 263.000 316.700 244.900 L 316.808 226.800 318.762 226.800 L 320.717 226.800 320.982 221.100 C 321.128 217.965,321.190 206.040,321.120 194.600 L 320.993 173.800 320.896 195.100 M85.491 216.689 C 86.201 216.777,87.461 216.779,88.291 216.692 C 89.121 216.605,88.540 216.533,87.000 216.531 C 85.460 216.529,84.781 216.600,85.491 216.689 M89.923 223.430 C 90.016 224.953,90.177 226.290,90.280 226.400 C 90.382 226.510,125.732 226.649,168.833 226.710 L 247.200 226.819 247.200 229.410 L 247.200 232.000 244.860 232.000 L 242.521 232.000 242.262 235.900 C 242.120 238.045,242.003 245.056,242.002 251.480 L 242.000 263.160 239.700 263.280 L 237.400 263.400 237.283 265.838 L 237.165 268.276 229.883 268.535 C 225.877 268.678,221.295 268.912,219.700 269.055 L 216.800 269.316 216.800 271.647 L 216.800 273.978 211.100 274.089 L 205.400 274.200 205.279 276.551 C 205.173 278.591,205.244 278.869,205.811 278.651 C 206.171 278.513,207.441 278.400,208.633 278.400 L 210.800 278.400 210.800 276.461 L 210.800 274.522 215.300 274.263 C 217.775 274.120,221.276 274.003,223.081 274.002 L 226.362 274.000 226.481 271.500 L 226.600 269.000 232.200 268.800 L 237.800 268.600 237.919 266.120 L 238.037 263.641 240.119 263.520 L 242.200 263.400 242.307 252.700 L 242.413 242.000 244.747 242.000 L 247.081 242.000 247.338 238.700 C 247.480 236.885,247.596 233.375,247.598 230.900 L 247.600 226.400 171.000 226.400 L 94.400 226.400 94.400 224.000 L 94.400 221.600 92.233 221.600 C 90.929 221.600,90.004 221.413,89.910 221.130 C 89.824 220.871,89.830 221.906,89.923 223.430 M94.400 250.180 L 94.400 252.760 92.100 252.880 L 89.800 253.000 89.677 276.200 C 89.609 288.960,89.672 301.949,89.817 305.065 L 90.080 310.731 92.256 310.865 L 94.432 311.000 94.316 308.200 L 94.200 305.400 92.100 305.279 L 90.000 305.158 90.000 279.199 L 90.000 253.240 92.300 253.120 L 94.600 253.000 94.719 250.500 L 94.838 248.000 124.019 248.000 L 153.200 248.000 153.200 250.380 L 153.200 252.760 155.500 252.880 L 157.800 253.000 157.919 255.281 L 158.039 257.563 160.519 257.681 L 163.000 257.800 163.200 260.600 L 163.400 263.400 165.881 263.519 L 168.363 263.637 168.481 266.119 L 168.600 268.600 173.800 268.800 L 179.000 269.000 179.119 271.500 L 179.238 274.000 181.819 274.000 L 184.400 274.000 184.400 271.461 L 184.400 268.922 180.138 268.661 C 177.794 268.517,174.284 268.400,172.338 268.400 L 168.800 268.400 168.800 265.800 L 168.800 263.200 166.248 263.200 L 163.696 263.200 163.409 258.217 L 163.121 253.235 160.461 253.117 L 157.800 253.000 157.682 250.300 L 157.563 247.600 125.982 247.600 L 94.400 247.600 94.400 250.180 M316.096 266.100 L 316.000 269.200 313.600 269.200 L 311.200 269.200 311.200 284.336 C 311.200 292.660,311.082 303.272,310.937 307.919 L 310.674 316.366 308.037 316.483 L 305.400 316.600 305.280 318.683 L 305.159 320.766 302.280 320.903 L 299.400 321.041 302.500 321.121 L 305.600 321.200 305.600 319.018 L 305.600 316.837 308.300 316.718 L 311.000 316.600 311.111 311.100 L 311.223 305.600 313.624 305.600 C 316.698 305.600,316.425 307.825,316.300 283.800 C 316.241 272.360,316.149 264.395,316.096 266.100 M192.700 274.297 L 195.600 274.435 195.600 276.618 L 195.600 278.800 197.700 278.801 L 199.800 278.801 199.666 276.656 L 199.532 274.512 196.506 274.256 C 194.841 274.115,192.651 274.036,191.640 274.079 C 190.481 274.130,190.873 274.210,192.700 274.297 M94.735 318.545 L 94.870 320.723 99.852 321.011 C 102.593 321.169,104.947 321.186,105.084 321.049 C 105.221 320.912,104.143 320.800,102.688 320.800 L 100.042 320.800 99.921 318.700 L 99.800 316.600 97.200 316.484 L 94.600 316.367 94.735 318.545 M111.132 323.743 L 111.263 326.288 114.292 326.544 C 115.958 326.685,118.149 326.768,119.160 326.729 C 120.616 326.673,120.415 326.611,118.200 326.429 L 115.400 326.200 115.281 323.700 L 115.162 321.200 113.081 321.199 L 111.000 321.198 111.132 323.743 M290.000 323.800 L 290.000 326.400 285.661 326.400 C 283.275 326.400,279.675 326.517,277.661 326.660 L 274.000 326.920 274.000 329.449 L 274.000 331.977 268.500 332.089 L 263.000 332.200 262.881 334.688 L 262.762 337.176 257.681 337.307 L 252.600 337.438 258.000 337.419 L 263.400 337.400 263.519 334.900 L 263.638 332.400 268.519 332.350 C 271.204 332.323,274.660 332.188,276.200 332.050 L 279.000 331.800 279.119 329.300 L 279.238 326.800 283.319 326.798 C 285.564 326.797,289.155 326.680,291.300 326.538 L 295.200 326.279 295.200 323.740 L 295.200 321.200 292.600 321.200 L 290.000 321.200 290.000 323.800 M126.400 329.400 L 126.400 332.000 129.200 332.000 L 132.000 332.000 132.000 329.400 L 132.000 326.800 129.200 326.800 L 126.400 326.800 126.400 329.400 M137.181 332.293 L 141.962 332.424 142.081 334.912 L 142.200 337.400 147.400 337.417 L 152.600 337.435 147.519 337.306 L 142.438 337.177 142.319 334.689 L 142.200 332.200 137.299 332.181 L 132.399 332.161 137.181 332.293 M157.935 339.745 L 158.070 341.923 163.052 342.211 C 165.793 342.369,168.147 342.386,168.284 342.249 C 168.421 342.112,167.343 342.000,165.888 342.000 L 163.242 342.000 163.121 339.900 L 163.000 337.800 160.400 337.684 L 157.800 337.567 157.935 339.745 M242.400 339.800 L 242.400 342.000 238.900 342.002 C 236.975 342.003,233.375 342.120,230.900 342.263 L 226.400 342.522 226.400 345.049 L 226.400 347.576 221.300 347.688 L 216.200 347.800 216.081 350.289 L 215.962 352.777 210.681 352.901 L 205.400 353.025 210.900 353.113 L 216.400 353.200 216.400 350.663 L 216.400 348.126 224.042 347.861 C 233.009 347.549,232.400 347.774,232.400 344.776 L 232.400 342.400 236.100 342.398 C 238.135 342.397,241.555 342.280,243.700 342.138 L 247.600 341.879 247.600 339.740 L 247.600 337.600 245.000 337.600 L 242.400 337.600 242.400 339.800 M174.000 344.940 L 174.000 347.480 177.661 347.740 C 179.675 347.883,183.177 348.000,185.442 348.000 L 189.562 348.000 189.681 350.500 L 189.800 353.000 194.701 353.019 L 199.601 353.039 194.819 352.907 L 190.038 352.776 189.919 350.288 L 189.800 347.800 184.300 347.689 L 178.800 347.577 178.800 344.989 L 178.800 342.400 176.400 342.400 L 174.000 342.400 174.000 344.940 " stroke="none" fill="#f9a169" fill-rule="evenodd"></path><path id="path4" d="M81.720 47.895 L 79.241 48.037 79.120 50.119 L 79.000 52.200 76.300 52.318 L 73.600 52.437 73.600 68.199 L 73.600 83.962 76.100 84.081 L 78.600 84.200 78.843 108.200 C 78.976 121.400,79.111 133.235,79.143 134.500 L 79.200 136.800 81.595 136.800 L 83.991 136.800 84.100 152.900 L 84.209 169.000 84.303 151.800 C 84.354 142.340,84.280 132.845,84.138 130.700 L 83.879 126.800 81.540 126.800 L 79.200 126.800 79.200 113.666 C 79.200 106.442,79.081 89.711,78.935 76.486 L 78.669 52.440 81.435 52.320 L 84.200 52.200 84.321 50.100 L 84.442 48.000 202.621 48.000 L 320.800 48.000 320.800 50.200 L 320.800 52.400 323.700 52.322 L 326.600 52.243 323.920 52.104 L 321.241 51.964 321.120 49.882 L 321.000 47.800 202.600 47.777 C 137.480 47.764,83.084 47.817,81.720 47.895 M326.582 68.600 C 326.582 77.400,326.635 80.943,326.700 76.473 C 326.764 72.004,326.764 64.804,326.699 60.473 C 326.635 56.143,326.582 59.800,326.582 68.600 M321.067 111.067 C 320.920 111.213,320.800 112.176,320.800 113.207 L 320.800 115.080 317.139 115.340 C 315.125 115.483,277.433 115.600,233.380 115.600 L 153.282 115.600 153.017 120.900 C 152.871 123.815,152.810 132.230,152.881 139.600 L 153.011 153.000 153.106 136.900 L 153.200 120.800 176.400 120.800 L 199.600 120.800 199.600 118.400 L 199.600 116.000 257.500 115.948 C 289.345 115.919,316.750 115.784,318.400 115.648 L 321.400 115.400 321.520 113.319 L 321.641 111.237 324.120 111.096 L 326.600 110.954 323.967 110.877 C 322.518 110.835,321.213 110.920,321.067 111.067 M153.200 155.268 L 153.200 157.468 188.300 157.734 C 207.605 157.880,244.325 158.000,269.900 158.000 L 316.400 158.000 316.400 160.600 L 316.400 163.200 318.600 163.200 L 320.800 163.200 320.800 160.620 L 320.800 158.040 318.500 157.920 L 316.200 157.800 316.079 155.700 L 315.958 153.600 273.645 153.600 C 250.373 153.600,213.753 153.480,192.266 153.334 L 153.200 153.068 153.200 155.268 M320.957 168.800 C 320.957 171.770,321.020 172.985,321.097 171.500 C 321.174 170.015,321.174 167.585,321.097 166.100 C 321.020 164.615,320.957 165.830,320.957 168.800 M316.662 178.100 C 316.526 180.135,316.295 200.017,316.147 222.282 L 315.879 262.765 313.439 262.882 L 311.000 263.000 310.994 284.200 C 310.988 304.325,310.994 304.483,311.098 287.300 L 311.208 269.200 313.543 269.200 L 315.878 269.200 316.137 264.700 C 316.280 262.225,316.398 251.830,316.401 241.600 C 316.403 231.370,316.520 221.515,316.662 219.700 L 316.919 216.400 318.859 216.400 L 320.800 216.400 320.800 195.400 L 320.800 174.400 318.855 174.400 L 316.910 174.400 316.662 178.100 M84.479 213.300 L 84.400 216.400 87.000 216.400 L 89.600 216.400 89.600 218.367 C 89.600 221.391,89.771 221.600,92.243 221.600 L 94.400 221.600 94.400 224.000 L 94.400 226.400 171.000 226.400 L 247.600 226.400 247.598 230.900 C 247.596 233.375,247.480 236.885,247.338 238.700 L 247.081 242.000 244.741 242.000 L 242.400 242.000 242.400 244.819 L 242.400 247.638 244.900 247.519 L 247.400 247.400 247.648 244.400 C 247.970 240.499,247.971 227.392,247.650 223.800 L 247.400 221.000 168.800 221.000 L 90.200 221.000 90.000 218.600 L 89.800 216.200 87.317 216.081 L 84.834 215.963 84.697 213.081 L 84.559 210.200 84.479 213.300 M94.719 250.500 L 94.600 253.000 92.300 253.120 L 90.000 253.240 90.000 255.641 L 90.000 258.042 92.100 257.921 L 94.200 257.800 94.320 255.500 L 94.440 253.200 125.980 253.200 L 157.519 253.200 157.807 258.182 L 158.094 263.164 160.547 263.282 L 163.000 263.400 163.118 266.100 L 163.237 268.800 165.918 268.801 L 168.600 268.802 168.467 266.219 L 168.333 263.636 165.867 263.518 L 163.400 263.400 163.200 260.600 L 163.000 257.800 160.519 257.681 L 158.039 257.563 157.919 255.281 L 157.800 253.000 155.500 252.880 L 153.200 252.760 153.200 250.380 L 153.200 248.000 124.019 248.000 L 94.838 248.000 94.719 250.500 M240.119 263.520 L 238.037 263.641 237.919 266.120 L 237.800 268.600 232.200 268.800 L 226.600 269.000 226.481 271.488 L 226.362 273.976 221.481 274.101 L 216.600 274.227 221.700 274.314 L 226.800 274.400 226.800 271.863 L 226.800 269.325 234.448 269.081 C 243.340 268.797,242.469 269.144,242.319 265.947 L 242.200 263.400 240.119 263.520 M90.077 284.279 L 90.000 305.158 92.100 305.279 L 94.200 305.400 94.400 311.000 C 94.510 314.080,94.541 305.980,94.469 293.000 C 94.319 265.934,94.543 268.400,92.232 268.400 L 90.438 268.400 90.296 265.900 C 90.218 264.525,90.119 272.796,90.077 284.279 M174.332 271.345 L 174.465 273.925 178.932 274.192 C 181.390 274.339,184.930 274.393,186.800 274.311 C 189.411 274.197,188.928 274.144,184.719 274.081 L 179.238 274.000 179.119 271.500 L 179.000 269.000 176.600 268.883 L 174.200 268.765 174.332 271.345 M195.367 276.698 L 195.400 279.000 203.200 279.000 L 211.000 279.000 211.037 276.600 C 211.071 274.423,211.060 274.390,210.919 276.241 L 210.762 278.283 207.120 278.541 C 205.116 278.684,201.714 278.800,199.559 278.800 L 195.640 278.800 195.487 276.598 L 195.334 274.396 195.367 276.698 M302.700 316.297 L 300.000 316.437 300.000 318.618 L 300.000 320.800 302.579 320.800 L 305.158 320.800 305.279 318.700 L 305.400 316.600 308.200 316.371 L 311.000 316.141 308.200 316.149 C 306.660 316.153,304.185 316.220,302.700 316.297 M99.934 318.537 L 100.067 320.684 103.934 320.940 C 106.060 321.081,109.456 321.197,111.481 321.198 L 115.162 321.200 115.309 323.500 L 115.457 325.800 115.429 323.400 L 115.400 321.000 110.300 320.888 L 105.200 320.776 105.200 318.788 L 105.200 316.800 103.033 316.800 C 101.841 316.800,100.626 316.708,100.333 316.595 C 99.920 316.436,99.830 316.875,99.934 318.537 M289.678 323.700 L 289.757 326.600 289.896 323.912 L 290.036 321.224 294.918 321.099 L 299.800 320.973 294.700 320.886 L 289.600 320.800 289.678 323.700 M126.300 326.693 L 132.000 326.822 132.000 329.411 L 132.000 332.000 134.500 331.924 L 137.000 331.849 134.719 331.705 L 132.437 331.561 132.319 329.081 L 132.200 326.600 126.400 326.582 L 120.600 326.565 126.300 326.693 M271.500 326.697 L 268.800 326.837 268.800 329.157 L 268.800 331.478 264.538 331.739 C 262.194 331.883,258.684 332.000,256.738 332.000 L 253.200 332.000 253.200 334.600 L 253.200 337.200 257.981 337.200 L 262.762 337.200 262.881 334.700 L 263.000 332.200 268.500 332.089 L 274.000 331.977 274.000 329.408 L 274.000 326.838 276.500 326.696 L 279.000 326.554 276.600 326.555 C 275.280 326.556,272.985 326.620,271.500 326.697 M142.332 334.541 L 142.463 337.084 152.795 337.442 C 158.477 337.639,163.042 337.665,162.940 337.500 C 162.837 337.335,160.513 337.200,157.776 337.200 L 152.800 337.200 152.800 334.860 L 152.800 332.520 149.139 332.260 C 147.125 332.117,144.740 332.000,143.839 331.999 L 142.200 331.998 142.332 334.541 M242.076 339.700 L 242.151 342.200 242.295 339.911 L 242.439 337.623 247.720 337.499 L 253.000 337.375 247.500 337.287 L 242.000 337.200 242.076 339.700 M173.599 342.293 L 178.800 342.423 178.800 345.012 L 178.800 347.600 181.700 347.522 L 184.600 347.443 181.919 347.304 L 179.237 347.164 179.119 344.682 L 179.000 342.200 173.699 342.182 L 168.399 342.164 173.599 342.293 M223.900 342.297 L 221.200 342.437 221.200 344.818 L 221.200 347.200 219.500 347.253 C 218.565 347.282,215.010 347.417,211.600 347.553 L 205.400 347.800 205.281 350.300 L 205.162 352.800 202.581 352.800 L 200.000 352.800 200.000 350.459 L 200.000 348.119 196.700 347.862 C 194.885 347.720,192.590 347.603,191.600 347.602 L 189.800 347.598 189.932 350.143 L 190.063 352.687 196.301 352.897 C 199.732 353.012,205.559 353.011,209.252 352.895 L 215.965 352.684 216.082 350.242 L 216.200 347.800 221.300 347.688 L 226.400 347.576 226.400 345.005 L 226.400 342.434 229.500 342.297 L 232.600 342.161 229.600 342.159 C 227.950 342.158,225.385 342.220,223.900 342.297 " stroke="none" fill="#f8c9a0" fill-rule="evenodd"></path></g></svg>