<svg id="svg" version="1.1" xmlns="http://www.w3.org/2000/svg" xmlns:xlink="http://www.w3.org/1999/xlink" width="400" height="400" viewBox="0, 0, 400,400"><g id="svgg"><path id="path0" d="M144.074 122.407 L 144.074 124.815 141.667 124.815 L 139.259 124.815 139.259 129.630 L 139.259 134.444 136.852 134.444 L 134.444 134.444 134.444 146.667 L 134.444 158.889 136.852 158.889 L 139.259 158.889 139.259 175.926 L 139.259 192.963 141.667 192.963 L 144.074 192.963 144.074 195.185 L 144.074 197.407 141.667 197.407 L 139.259 197.407 139.259 207.037 L 139.259 216.667 136.852 216.667 L 134.444 216.667 134.444 238.704 L 134.444 260.741 136.852 260.741 L 139.259 260.741 139.259 263.148 L 139.259 265.556 141.667 265.556 L 144.074 265.556 144.074 267.963 L 144.074 270.370 146.481 270.370 L 148.889 270.370 148.889 272.778 L 148.889 275.185 151.296 275.185 L 153.704 275.185 153.704 277.593 L 153.704 280.000 204.815 280.000 L 255.926 280.000 255.926 277.593 L 255.926 275.185 258.333 275.185 L 260.741 275.185 260.741 270.370 L 260.741 265.556 263.148 265.556 L 265.556 265.556 265.556 260.556 L 265.556 255.556 263.148 255.556 L 260.741 255.556 260.741 253.148 L 260.741 250.741 248.704 250.741 L 236.667 250.741 236.667 243.704 L 236.667 236.667 239.074 236.667 L 241.481 236.667 241.481 207.407 L 241.481 178.148 239.074 178.148 L 236.667 178.148 236.667 170.926 L 236.667 163.704 246.296 163.704 L 255.926 163.704 255.926 161.296 L 255.926 158.889 258.333 158.889 L 260.741 158.889 260.741 144.259 L 260.741 129.630 255.926 129.630 L 251.111 129.630 251.111 127.222 L 251.111 124.815 207.407 124.815 L 163.704 124.815 163.704 122.407 L 163.704 120.000 153.889 120.000 L 144.074 120.000 144.074 122.407 M163.704 127.222 L 163.704 129.630 205.000 129.630 L 246.296 129.630 246.296 132.222 L 246.296 134.815 243.889 134.815 L 241.481 134.815 241.481 137.222 L 241.481 139.630 239.074 139.630 L 236.667 139.630 236.667 142.037 L 236.667 144.444 234.259 144.444 L 231.852 144.444 231.852 146.852 L 231.852 149.259 229.242 149.259 L 226.631 149.259 226.742 151.574 L 226.852 153.889 229.382 153.999 L 231.912 154.109 231.789 158.629 C 231.722 161.114,231.708 166.523,231.759 170.648 L 231.852 178.148 234.259 178.148 L 236.667 178.148 236.667 207.407 L 236.667 236.667 234.259 236.667 L 231.852 236.667 231.852 251.111 L 231.852 265.556 234.259 265.556 L 236.667 265.556 236.667 267.963 L 236.667 270.370 239.074 270.370 L 241.481 270.370 241.481 272.778 L 241.481 275.185 197.778 275.185 L 154.074 275.185 154.074 272.778 L 154.074 270.370 151.667 270.370 L 149.259 270.370 149.259 267.963 L 149.259 265.556 146.667 265.556 L 144.074 265.556 144.074 263.148 L 144.074 260.741 141.667 260.741 L 139.259 260.741 139.259 238.889 L 139.259 217.037 141.667 217.037 L 144.074 217.037 144.074 207.222 L 144.074 197.407 146.481 197.407 L 148.889 197.407 148.889 195.185 L 148.889 192.963 146.430 192.963 L 143.972 192.963 144.101 185.833 C 144.172 181.912,144.195 174.245,144.152 168.796 L 144.074 158.889 141.667 158.889 L 139.259 158.889 139.259 146.667 L 139.259 134.444 141.667 134.444 L 144.074 134.444 144.074 129.630 L 144.074 124.815 153.889 124.815 L 163.704 124.815 163.704 127.222 M255.926 144.259 L 255.926 149.259 253.519 149.259 L 251.111 149.259 251.111 154.074 L 251.111 158.889 248.519 158.889 L 245.926 158.889 245.926 156.481 L 245.926 154.074 243.519 154.074 L 241.111 154.074 241.111 151.481 L 241.111 148.889 243.519 148.889 L 245.926 148.889 245.926 144.321 C 245.926 138.786,245.435 139.259,251.173 139.259 L 255.926 139.259 255.926 144.259 M255.926 260.556 L 255.926 265.556 253.333 265.556 L 250.741 265.556 250.741 263.148 L 250.741 260.741 248.333 260.741 L 245.926 260.741 245.926 258.395 C 245.926 255.395,245.629 255.556,251.173 255.556 L 255.926 255.556 255.926 260.556 M154.074 263.148 L 154.074 265.556 156.481 265.556 L 158.889 265.556 158.889 263.148 L 158.889 260.741 156.481 260.741 L 154.074 260.741 154.074 263.148 M163.704 267.963 L 163.704 270.370 166.111 270.370 L 168.519 270.370 168.519 267.963 L 168.519 265.556 166.111 265.556 L 163.704 265.556 163.704 267.963 " stroke="none" fill="#a64624" fill-rule="evenodd"></path><path id="path1" d="M144.444 129.630 L 144.444 134.444 142.037 134.444 L 139.630 134.444 139.630 146.667 L 139.630 158.889 142.037 158.889 L 144.444 158.889 144.444 166.111 L 144.444 173.333 149.259 173.333 L 154.074 173.333 154.074 178.148 L 154.074 182.963 156.481 182.963 L 158.889 182.963 158.889 180.538 L 158.889 178.113 161.204 178.223 L 163.519 178.333 163.622 183.056 L 163.726 187.778 158.918 187.778 L 154.109 187.778 153.999 185.463 L 153.889 183.148 149.167 183.044 L 144.444 182.941 144.444 187.767 L 144.444 192.593 146.852 192.593 L 149.259 192.593 149.259 195.185 L 149.259 197.778 146.852 197.778 L 144.444 197.778 144.444 207.407 L 144.444 217.037 158.889 217.037 L 173.333 217.037 173.333 219.444 L 173.333 221.852 168.519 221.852 L 163.704 221.852 163.704 224.259 L 163.704 226.667 151.667 226.667 L 139.630 226.667 139.630 243.704 L 139.630 260.741 141.852 260.741 L 144.074 260.741 144.074 258.333 L 144.074 255.926 146.667 255.926 L 149.259 255.926 149.259 258.333 L 149.259 260.741 146.852 260.741 L 144.444 260.741 144.444 263.159 L 144.444 265.578 149.167 265.474 L 153.889 265.370 153.999 263.056 L 154.109 260.741 156.499 260.741 L 158.889 260.741 158.889 265.556 L 158.889 270.370 161.296 270.370 L 163.704 270.370 163.704 267.963 L 163.704 265.556 166.111 265.556 L 168.519 265.556 168.519 267.963 L 168.519 270.370 195.185 270.370 L 221.852 270.370 221.852 267.963 L 221.852 265.556 224.352 265.556 L 226.852 265.557 226.728 263.149 L 226.603 260.741 224.228 260.741 L 221.852 260.741 221.852 250.926 L 221.852 241.111 217.037 241.111 L 212.222 241.111 212.222 238.704 L 212.222 236.296 205.018 236.296 L 197.813 236.296 197.703 233.981 L 197.593 231.667 187.870 231.568 L 178.148 231.469 178.148 229.068 L 178.148 226.667 190.370 226.667 L 202.593 226.667 202.593 224.259 L 202.593 221.852 209.815 221.852 L 217.037 221.852 217.037 219.444 L 217.037 217.037 224.259 217.037 L 231.481 217.037 231.481 200.203 L 231.481 183.369 229.167 183.258 L 226.852 183.148 226.749 178.241 L 226.645 173.333 229.063 173.333 L 231.481 173.333 231.481 166.111 L 231.481 158.889 229.074 158.889 L 226.667 158.889 226.667 156.481 L 226.667 154.074 217.037 154.074 L 207.407 154.074 207.407 151.430 L 207.407 148.787 219.537 148.930 C 226.208 149.009,230.542 149.025,229.167 148.965 L 226.667 148.855 226.667 146.423 L 226.667 143.991 231.481 144.259 L 236.296 144.527 236.296 142.078 L 236.296 139.630 238.673 139.630 L 241.050 139.630 241.173 137.130 L 241.296 134.630 226.667 134.749 C 218.620 134.815,198.995 134.753,183.056 134.612 L 154.074 134.355 154.074 132.194 L 154.074 130.034 151.574 129.924 L 149.074 129.815 149.074 127.314 L 149.074 124.813 146.759 124.814 L 144.444 124.815 144.444 129.630 M156.389 125.089 C 157.764 125.161,160.014 125.161,161.389 125.089 C 162.764 125.018,161.639 124.960,158.889 124.960 C 156.139 124.960,155.014 125.018,156.389 125.089 M176.944 129.907 C 184.329 129.963,196.412 129.963,203.796 129.907 C 211.181 129.851,205.139 129.805,190.370 129.805 C 175.602 129.805,169.560 129.851,176.944 129.907 M246.215 144.352 L 246.111 149.074 243.796 149.184 L 241.481 149.295 241.481 151.684 L 241.481 154.074 243.889 154.074 L 246.296 154.074 246.296 156.481 L 246.296 158.889 248.704 158.889 L 251.111 158.889 251.111 154.092 L 251.111 149.295 253.426 149.184 L 255.741 149.074 255.844 144.352 L 255.948 139.630 251.133 139.630 L 246.318 139.630 246.215 144.352 M232.870 178.416 C 233.532 178.498,234.616 178.498,235.278 178.416 C 235.940 178.334,235.398 178.267,234.074 178.267 C 232.750 178.267,232.208 178.334,232.870 178.416 M202.593 185.370 L 202.593 187.778 185.556 187.778 L 168.519 187.778 168.519 185.370 L 168.519 182.963 185.556 182.963 L 202.593 182.963 202.593 185.370 M202.518 200.093 L 202.407 202.407 178.241 202.503 L 154.074 202.598 154.074 200.188 L 154.074 197.778 178.351 197.778 L 202.628 197.778 202.518 200.093 M139.381 219.444 C 139.382 220.870,139.449 221.408,139.530 220.640 C 139.610 219.871,139.608 218.705,139.527 218.047 C 139.445 217.390,139.379 218.019,139.381 219.444 M217.037 233.889 L 217.037 236.296 219.444 236.296 L 221.852 236.296 221.852 233.889 L 221.852 231.481 219.444 231.481 L 217.037 231.481 217.037 233.889 M246.296 258.333 L 246.296 260.741 248.704 260.741 L 251.111 260.741 251.111 263.148 L 251.111 265.556 253.519 265.556 L 255.926 265.556 255.926 260.741 L 255.926 255.926 251.111 255.926 L 246.296 255.926 246.296 258.333 " stroke="none" fill="#e1a372" fill-rule="evenodd"></path><path id="path2" d="M149.063 125.267 C 148.944 125.576,148.898 126.726,148.960 127.822 L 149.074 129.815 151.574 129.924 L 154.074 130.034 154.074 132.194 L 154.074 134.355 183.056 134.610 C 198.995 134.750,218.620 134.810,226.667 134.743 C 235.170 134.672,229.083 134.584,212.130 134.533 L 182.963 134.444 182.963 132.222 L 182.963 130.000 173.333 130.000 L 163.704 130.000 163.704 127.593 L 163.704 125.185 160.093 125.183 C 158.106 125.182,154.861 125.074,152.880 124.943 C 149.851 124.742,149.244 124.794,149.063 125.267 M154.074 127.407 L 154.074 129.630 151.667 129.630 L 149.259 129.630 149.259 127.407 L 149.259 125.185 151.667 125.185 L 154.074 125.185 154.074 127.407 M231.464 129.905 L 245.891 130.009 246.027 132.134 L 246.164 134.259 246.138 132.037 L 246.111 129.815 231.574 129.808 L 217.037 129.802 231.464 129.905 M227.677 144.341 C 228.334 144.423,229.501 144.425,230.270 144.344 C 231.038 144.264,230.500 144.197,229.074 144.196 C 227.648 144.194,227.019 144.260,227.677 144.341 M212.130 149.166 C 214.829 149.229,219.245 149.229,221.944 149.166 C 224.644 149.102,222.435 149.051,217.037 149.051 C 211.639 149.051,209.431 149.102,212.130 149.166 M226.788 156.481 C 226.790 157.907,226.857 158.445,226.937 157.677 C 227.017 156.908,227.016 155.742,226.934 155.084 C 226.852 154.427,226.787 155.056,226.788 156.481 M144.444 175.741 L 144.444 178.148 149.259 178.148 L 154.074 178.148 154.074 175.741 L 154.074 173.333 149.259 173.333 L 144.444 173.333 144.444 175.741 M158.889 180.538 L 158.889 182.963 161.314 182.963 L 163.739 182.963 163.629 180.648 L 163.519 178.333 161.204 178.223 L 158.889 178.113 158.889 180.538 M229.167 183.237 L 231.481 183.369 231.481 200.203 L 231.481 217.037 224.259 217.037 L 217.037 217.037 217.037 219.444 L 217.037 221.852 209.815 221.852 L 202.593 221.852 202.593 224.259 L 202.593 226.667 190.370 226.667 L 178.148 226.667 178.148 229.068 L 178.148 231.469 187.870 231.568 L 197.593 231.667 197.703 233.981 L 197.813 236.296 205.018 236.296 L 212.222 236.296 212.222 238.704 L 212.222 241.111 217.037 241.111 L 221.852 241.111 221.852 250.926 L 221.852 260.741 224.242 260.741 L 226.631 260.741 226.742 263.056 L 226.852 265.370 229.167 265.481 L 231.481 265.591 231.481 249.894 C 231.481 241.260,231.592 222.669,231.728 208.580 L 231.974 182.963 229.413 183.034 L 226.852 183.106 229.167 183.237 M139.630 219.444 L 139.630 221.852 156.481 221.852 L 173.333 221.852 173.333 219.444 L 173.333 217.037 156.481 217.037 L 139.630 217.037 139.630 219.444 M221.852 233.889 L 221.852 236.296 219.444 236.296 L 217.037 236.296 217.037 233.889 L 217.037 231.481 219.444 231.481 L 221.852 231.481 221.852 233.889 " stroke="none" fill="#f3bc8c" fill-rule="evenodd"></path><path id="path3" d="M149.259 127.407 L 149.259 129.630 151.667 129.630 L 154.074 129.630 154.074 127.407 L 154.074 125.185 151.667 125.185 L 149.259 125.185 149.259 127.407 M182.963 132.222 L 182.963 134.444 214.444 134.444 L 245.926 134.444 245.926 132.222 L 245.926 130.000 214.444 130.000 L 182.963 130.000 182.963 132.222 M226.667 146.667 L 226.667 148.889 229.074 148.889 L 231.481 148.889 231.481 146.667 L 231.481 144.444 229.074 144.444 L 226.667 144.444 226.667 146.667 M207.407 151.667 L 207.407 154.074 217.037 154.074 L 226.667 154.074 226.667 151.667 L 226.667 149.259 217.037 149.259 L 207.407 149.259 207.407 151.667 M227.037 156.481 L 227.037 158.889 229.259 158.889 L 231.481 158.889 231.481 156.481 L 231.481 154.074 229.259 154.074 L 227.037 154.074 227.037 156.481 M226.667 178.148 L 226.667 182.963 229.320 182.963 L 231.973 182.963 231.718 209.630 L 231.463 236.296 233.880 236.296 L 236.296 236.296 236.296 207.407 L 236.296 178.519 233.889 178.519 L 231.481 178.519 231.481 175.926 L 231.481 173.333 229.074 173.333 L 226.667 173.333 226.667 178.148 " stroke="none" fill="#fbd1ba" fill-rule="evenodd"></path><path id="path4" d="M144.219 129.630 C 144.219 132.380,144.277 133.505,144.349 132.130 C 144.420 130.755,144.420 128.505,144.349 127.130 C 144.277 125.755,144.219 126.880,144.219 129.630 M139.425 146.667 C 139.425 153.491,139.475 156.282,139.536 152.870 C 139.598 149.458,139.598 143.875,139.536 140.463 C 139.475 137.051,139.425 139.843,139.425 146.667 M241.265 134.949 C 241.158 135.226,241.132 136.435,241.206 137.634 L 241.341 139.815 241.411 137.332 L 241.481 134.849 243.981 134.719 L 246.481 134.590 243.970 134.517 C 242.140 134.464,241.406 134.581,241.265 134.949 M246.173 139.506 C 246.037 139.642,245.926 141.809,245.926 144.321 L 245.926 148.889 243.519 148.889 L 241.111 148.889 241.184 151.574 L 241.256 154.259 241.385 151.777 L 241.515 149.294 243.813 149.184 L 246.111 149.074 246.215 144.363 L 246.318 139.651 251.215 139.536 L 256.111 139.421 251.265 139.340 C 248.600 139.296,246.309 139.370,246.173 139.506 M236.418 142.037 C 236.419 143.463,236.486 144.001,236.567 143.232 C 236.647 142.464,236.645 141.297,236.564 140.640 C 236.482 139.982,236.416 140.611,236.418 142.037 M231.603 146.852 C 231.605 148.278,231.672 148.816,231.752 148.047 C 231.832 147.279,231.831 146.112,231.749 145.455 C 231.667 144.797,231.601 145.426,231.603 146.852 M231.603 156.481 C 231.605 157.907,231.672 158.445,231.752 157.677 C 231.832 156.908,231.831 155.742,231.749 155.084 C 231.667 154.427,231.601 155.056,231.603 156.481 M246.047 156.481 C 246.049 157.907,246.116 158.445,246.196 157.677 C 246.276 156.908,246.275 155.742,246.193 155.084 C 246.111 154.427,246.046 155.056,246.047 156.481 M144.209 176.019 L 144.166 192.963 146.528 192.963 L 148.889 192.963 148.889 195.185 L 148.889 197.407 146.481 197.407 L 144.074 197.407 144.160 207.315 L 144.246 217.222 144.352 207.500 L 144.457 197.778 146.858 197.778 L 149.259 197.778 149.259 195.185 L 149.259 192.593 146.852 192.593 L 144.444 192.593 144.444 187.767 L 144.444 182.941 149.167 183.044 L 153.889 183.148 153.999 185.463 L 154.109 187.778 158.907 187.778 L 163.704 187.778 163.704 185.370 L 163.704 182.963 158.889 182.963 L 154.074 182.963 154.074 180.556 L 154.074 178.148 149.265 178.148 L 144.457 178.148 144.354 168.611 C 144.298 163.366,144.232 166.699,144.209 176.019 M231.638 170.741 C 231.638 174.917,231.692 176.625,231.758 174.537 C 231.824 172.449,231.824 169.032,231.758 166.944 C 231.692 164.856,231.638 166.565,231.638 170.741 M236.296 207.222 L 236.296 236.296 233.889 236.296 L 231.481 236.296 231.481 250.926 L 231.481 265.556 226.667 265.556 L 221.852 265.556 221.852 267.963 L 221.852 270.370 190.370 270.370 L 158.889 270.370 158.889 267.993 L 158.889 265.616 156.389 265.493 C 155.014 265.426,152.847 265.420,151.574 265.481 L 149.259 265.591 149.259 267.981 L 149.259 270.370 151.667 270.370 L 154.074 270.370 154.074 272.778 L 154.074 275.185 197.778 275.185 L 241.481 275.185 241.481 272.778 L 241.481 270.370 239.074 270.370 L 236.667 270.370 236.667 267.963 L 236.667 265.556 234.259 265.556 L 231.852 265.556 231.852 251.111 L 231.852 236.667 234.259 236.667 L 236.667 236.667 236.667 207.407 C 236.667 191.315,236.583 178.148,236.481 178.148 C 236.380 178.148,236.296 191.231,236.296 207.222 M168.519 185.370 L 168.519 187.778 185.556 187.778 L 202.593 187.778 202.593 185.370 L 202.593 182.963 185.556 182.963 L 168.519 182.963 168.519 185.370 M154.074 200.188 L 154.074 202.598 178.241 202.503 L 202.407 202.407 202.518 200.093 L 202.628 197.778 178.351 197.778 L 154.074 197.778 154.074 200.188 M139.348 241.389 L 139.437 260.926 139.537 243.796 L 139.637 226.667 151.670 226.667 L 163.704 226.667 163.704 224.259 L 163.704 221.852 151.481 221.852 L 139.259 221.852 139.348 241.389 M246.079 256.060 C 245.973 256.337,245.947 257.546,246.021 258.745 L 246.156 260.926 246.226 258.437 L 246.296 255.947 251.204 255.832 L 256.111 255.717 251.192 255.636 C 247.326 255.573,246.232 255.664,246.079 256.060 M144.147 260.833 C 144.187 263.532,144.277 264.616,144.349 263.241 L 144.478 260.741 146.869 260.741 L 149.259 260.741 149.259 258.333 L 149.259 255.926 146.667 255.926 L 144.074 255.926 144.147 260.833 M250.862 263.148 C 250.864 264.574,250.931 265.112,251.011 264.344 C 251.091 263.575,251.090 262.408,251.008 261.751 C 250.926 261.094,250.861 261.722,250.862 263.148 " stroke="none" fill="#ac744c" fill-rule="evenodd"></path></g></svg>