<?xml version="1.0" standalone="no"?>
<!DOCTYPE svg PUBLIC "-//W3C//DTD SVG 20010904//EN"
 "http://www.w3.org/TR/2001/REC-SVG-20010904/DTD/svg10.dtd">
<svg version="1.0" xmlns="http://www.w3.org/2000/svg"
 width="512.000000pt" height="512.000000pt" viewBox="0 0 512.000000 512.000000"
 preserveAspectRatio="xMidYMid meet">

<g transform="translate(0.000000,512.000000) scale(0.100000,-0.100000)"
fill="#000000" stroke="none">
<path d="M1940 4970 l0 -50 -155 0 -155 0 0 -55 0 -55 -100 0 -100 0 0 -50 0
-50 -105 0 -105 0 0 -50 0 -50 -50 0 -50 0 0 -50 0 -50 -100 0 -100 0 0 -50 0
-50 -50 0 -50 0 0 -55 0 -55 -55 0 -55 0 0 -50 0 -50 -50 0 -50 0 0 -50 0 -50
-50 0 -50 0 0 -100 0 -100 -50 0 -50 0 0 -55 0 -55 -50 0 -50 0 0 -100 0 -100
-55 0 -55 0 0 -155 0 -155 -50 0 -50 0 0 -150 0 -150 -50 0 -50 0 0 -560 0
-560 50 0 50 0 0 -155 0 -155 50 0 50 0 0 -100 0 -100 55 0 55 0 0 -105 0
-105 50 0 50 0 0 -100 0 -100 50 0 50 0 0 -50 0 -50 50 0 50 0 0 -50 0 -50 50
0 50 0 0 -55 0 -55 55 0 55 0 0 -50 0 -50 50 0 50 0 0 -50 0 -50 50 0 50 0 0
-50 0 -50 50 0 50 0 0 -50 0 -50 105 0 105 0 0 -55 0 -55 100 0 100 0 0 -50 0
-50 205 0 205 0 0 255 0 255 -255 0 -255 0 0 50 0 50 -105 0 -105 0 0 55 0 55
-50 0 -50 0 0 100 0 100 -50 0 -50 0 0 100 0 100 -50 0 -50 0 0 55 0 55 -105
0 -105 0 0 100 0 100 105 0 105 0 0 -50 0 -50 100 0 100 0 0 -50 0 -50 50 0
50 0 0 -105 0 -105 55 0 55 0 0 -50 0 -50 100 0 100 0 0 -50 0 -50 155 0 155
0 0 50 0 50 50 0 50 0 0 50 0 50 50 0 50 0 0 155 0 155 -205 0 -205 0 0 50 0
50 -100 0 -100 0 0 50 0 50 -50 0 -50 0 0 50 0 50 -55 0 -55 0 0 55 0 55 -50
0 -50 0 0 100 0 100 -50 0 -50 0 0 205 0 205 -50 0 -50 0 0 205 0 205 50 0 50
0 0 150 0 150 50 0 50 0 0 50 0 50 50 0 50 0 0 155 0 155 -50 0 -50 0 0 100 0
100 50 0 50 0 0 155 0 155 105 0 105 0 0 -50 0 -50 150 0 150 0 0 -55 0 -55
105 0 105 0 0 -50 0 -50 100 0 100 0 0 50 0 50 460 0 460 0 0 -50 0 -50 150 0
150 0 0 50 0 50 55 0 55 0 0 55 0 55 150 0 150 0 0 50 0 50 105 0 105 0 0 -50
0 -50 50 0 50 0 0 -410 0 -410 50 0 50 0 0 -100 0 -100 50 0 50 0 0 -360 0
-360 -50 0 -50 0 0 -150 0 -150 -50 0 -50 0 0 -50 0 -50 -50 0 -50 0 0 -55 0
-55 -55 0 -55 0 0 -50 0 -50 -50 0 -50 0 0 -50 0 -50 -100 0 -100 0 0 -50 0
-50 -205 0 -205 0 0 -105 0 -105 50 0 50 0 0 -560 0 -560 205 0 205 0 0 50 0
50 100 0 100 0 0 55 0 55 105 0 105 0 0 50 0 50 50 0 50 0 0 50 0 50 50 0 50
0 0 50 0 50 105 0 105 0 0 105 0 105 50 0 50 0 0 50 0 50 50 0 50 0 0 50 0 50
50 0 50 0 0 50 0 50 50 0 50 0 0 105 0 105 55 0 55 0 0 100 0 100 50 0 50 0 0
205 c0 130 4 205 10 205 7 0 10 193 10 560 0 367 -3 560 -10 560 -6 0 -10 75
-10 205 l0 205 -50 0 -50 0 0 100 0 100 -55 0 -55 0 0 100 0 100 -50 0 -50 0
0 55 0 55 -50 0 -50 0 0 100 0 100 -50 0 -50 0 0 50 0 50 -50 0 -50 0 0 50 0
50 -55 0 -55 0 0 55 0 55 -50 0 -50 0 0 50 0 50 -50 0 -50 0 0 50 0 50 -100 0
-100 0 0 50 0 50 -105 0 -105 0 0 50 0 50 -100 0 -100 0 0 55 0 55 -155 0
-155 0 0 50 0 50 -660 0 -660 0 0 -50z"/>
</g>
</svg>
